<svg xmlns="http://www.w3.org/2000/svg" xmlns:xlink="http://www.w3.org/1999/xlink" xmlns:lucid="lucid" width="1022.67" height="1642"><g transform="translate(81 -39)" lucid:page-tab-id="0_0"><path d="M538 66a6 6 0 0 1 6-6h241.2a6 6 0 0 1 6 6v219.4c-42.28-37.64-68.62-37.64-84.57-37.64-25.32 0-59 37.64-84.3 37.64-15.7 0-42.3 0-84.33-37.64z" stroke="#282c33" stroke-width="2" fill="#b8f5ed"/><path d="M552.07 85.9a6 6 0 0 1 6-6h241.2a6 6 0 0 1 6 6v219.4c-42.3-37.65-68.62-37.65-84.57-37.65-25.32 0-59 37.64-84.32 37.64-15.7 0-42.28 0-84.3-37.65z" stroke="#282c33" stroke-width="2" fill="#b8f5ed"/><path d="M566.13 105.78a6 6 0 0 1 6-6h241.2a6 6 0 0 1 6 6v219.4c-42.28-37.64-68.6-37.64-84.57-37.64-25.3 0-59 37.64-84.3 37.64-15.7 0-42.3 0-84.33-37.64z" stroke="#282c33" stroke-width="2" fill="#b8f5ed"/><use xlink:href="#a" transform="matrix(1,0,0,1,571.1333333333336,104.77647058823528) translate(14.851851851851848 79.22222222222223)"/><use xlink:href="#b" transform="matrix(1,0,0,1,571.1333333333336,104.77647058823528) translate(104.34567901234567 79.22222222222223)"/><use xlink:href="#c" transform="matrix(1,0,0,1,571.1333333333336,104.77647058823528) translate(158.66666666666666 79.22222222222223)"/><use xlink:href="#d" transform="matrix(1,0,0,1,571.1333333333336,104.77647058823528) translate(208.77777777777777 79.22222222222223)"/><use xlink:href="#e" transform="matrix(1,0,0,1,571.1333333333336,104.77647058823528) translate(4.734567901234556 108.55555555555556)"/><path d="M580 386a6 6 0 0 1 6-6h188a6 6 0 0 1 6 6v108a6 6 0 0 1-6 6H586a6 6 0 0 1-6-6z" stroke="#282c33" stroke-width="2" fill="#ffd6f5"/><use xlink:href="#f" transform="matrix(1,0,0,1,592,392) translate(22.882716049382722 37.55555555555556)"/><use xlink:href="#g" transform="matrix(1,0,0,1,592,392) translate(77.13580246913581 37.55555555555556)"/><use xlink:href="#h" transform="matrix(1,0,0,1,592,392) translate(2.1728395061728065 66.88888888888889)"/><path d="M600.67 565.92a6.8 6.8 0 0 1 5.95-6.74l148.1-18.44a5.3 5.3 0 0 1 5.95 5.26v108a6 6 0 0 1-6 6h-148a6 6 0 0 1-6-6z" stroke="#282c33" stroke-width="2" fill="#c3f7c8"/><use xlink:href="#i" transform="matrix(1,0,0,1,605.6666666666666,565) translate(15.959876543209873 36.43055555555556)"/><use xlink:href="#j" transform="matrix(1,0,0,1,605.6666666666666,565) translate(86.50925925925925 36.43055555555556)"/><use xlink:href="#k" transform="matrix(1,0,0,1,605.6666666666666,565) translate(59.45061728395062 65.76388888888889)"/><path d="M542 946a6 6 0 0 1 6-6h267.33a6 6 0 0 1 6 6v108a6 6 0 0 1-6 6H548a6 6 0 0 1-6-6z" stroke="#282c33" stroke-width="2" fill="#ffd6f5"/><use xlink:href="#l" transform="matrix(1,0,0,1,553.9999999999998,952) translate(54.734567901234556 37.55555555555556)"/><use xlink:href="#m" transform="matrix(1,0,0,1,553.9999999999998,952) translate(7.2716049382715795 66.88888888888889)"/><use xlink:href="#n" transform="matrix(1,0,0,1,553.9999999999998,952) translate(141.64814814814815 66.88888888888889)"/><path d="M791.12 1545.8a7.8 7.8 0 0 1 7.55-5.8h116a4.6 4.6 0 0 1 4.45 5.8l-28.9 108.4a7.8 7.8 0 0 1-7.55 5.8h-116a4.6 4.6 0 0 1-4.46-5.8z" stroke="#282c33" stroke-width="2" fill="#cfe4ff"/><use xlink:href="#o" transform="matrix(1,0,0,1,765.6666666666666,1545) translate(45.58833333333334 43.61805555555556)"/><use xlink:href="#p" transform="matrix(1,0,0,1,765.6666666666666,1545) translate(48.239567901234565 72.95138888888889)"/><path d="M490.45 1545.8a7.8 7.8 0 0 1 7.55-5.8h116a4.6 4.6 0 0 1 4.45 5.8l-28.9 108.4a7.8 7.8 0 0 1-7.55 5.8H466a4.6 4.6 0 0 1-4.45-5.8z" stroke="#282c33" stroke-width="2" fill="#cfe4ff"/><use xlink:href="#o" transform="matrix(1,0,0,1,465,1545) translate(45.58833333333334 43.61805555555556)"/><use xlink:href="#p" transform="matrix(1,0,0,1,465,1545) translate(48.239567901234565 72.95138888888889)"/><path d="M460 1185.92a6.8 6.8 0 0 1 5.95-6.74l148.1-18.44A5.3 5.3 0 0 1 620 1166v108a6 6 0 0 1-6 6H466a6 6 0 0 1-6-6z" stroke="#282c33" stroke-width="2" fill="#c3f7c8"/><use xlink:href="#q" transform="matrix(1,0,0,1,465,1185) translate(21.459876543209873 36.43055555555556)"/><use xlink:href="#r" transform="matrix(1,0,0,1,465,1185) translate(50.623456790123456 65.76388888888889)"/><path d="M760.67 1185.92a6.8 6.8 0 0 1 5.95-6.74l148.1-18.44a5.3 5.3 0 0 1 5.95 5.26v108a6 6 0 0 1-6 6h-148a6 6 0 0 1-6-6z" stroke="#282c33" stroke-width="2" fill="#c3f7c8"/><use xlink:href="#q" transform="matrix(1,0,0,1,765.6666666666666,1185) translate(21.459876543209873 36.43055555555556)"/><use xlink:href="#r" transform="matrix(1,0,0,1,765.6666666666666,1185) translate(50.623456790123456 65.76388888888889)"/><path d="M760.67 1365.92a6.8 6.8 0 0 1 5.95-6.74l148.1-18.44a5.3 5.3 0 0 1 5.95 5.26v108a6 6 0 0 1-6 6h-148a6 6 0 0 1-6-6z" stroke="#282c33" stroke-width="2" fill="#c3f7c8"/><use xlink:href="#s" transform="matrix(1,0,0,1,765.6666666666666,1365) translate(31.679012345679013 50.49305555555556)"/><use xlink:href="#t" transform="matrix(1,0,0,1,765.6666666666666,1365) translate(91.29629629629629 50.49305555555556)"/><path d="M-60 72a12 12 0 0 1 12-12h519a12 12 0 0 1 12 12v537a12 12 0 0 1-12 12H-48a12 12 0 0 1-12-12z" stroke="#dfe3e8" stroke-width="2" fill="#fff"/><path d="M36.53 233.9c0-1.18.95-2.14 2.13-2.14H85.5c1.18 0 2.13.96 2.13 2.13v34.06c-8.53-6.04-13.85-6.04-17.07-6.04-5.1 0-11.9 6.04-17 6.04-3.18 0-8.55 0-17.03-6.04z" stroke="#282c33" stroke-width="1.05" fill="#b8f5ed"/><path d="M39.37 237.1c0-1.2.95-2.14 2.13-2.14h46.84c1.18 0 2.13.95 2.13 2.13v34.06c-8.53-6.05-13.85-6.05-17.07-6.05-5.1 0-11.9 6.06-17.02 6.06-3.16 0-8.53 0-17-6.05z" stroke="#282c33" stroke-width="1.05" fill="#b8f5ed"/><path d="M42.2 240.28c0-1.18.96-2.13 2.14-2.13h46.84c1.18 0 2.13.95 2.13 2.13v34.07c-8.52-6.05-13.84-6.05-17.06-6.05-5.1 0-11.9 6.05-17.02 6.05-3.16 0-8.53 0-17-6.05z" stroke="#282c33" stroke-width="1.05" fill="#b8f5ed"/><path d="M36.53 324.74c0-1.17.95-2.13 2.13-2.13h52.52c1.18 0 2.13.97 2.13 2.14v38.33c0 1.18-.94 2.13-2.12 2.13H38.66c-1.18 0-2.13-.95-2.13-2.13z" stroke="#282c33" stroke-width="1.05" fill="#ffd6f5"/><path d="M36.53 422.66c0-1.22.9-2.24 2.1-2.4l52.57-6.53c1.03-.13 1.97.6 2.1 1.63v38.55c0 1.18-.94 2.13-2.12 2.13H38.66c-1.18 0-2.13-.95-2.13-2.13z" stroke="#282c33" stroke-width="1.05" fill="#c3f7c8"/><path d="M47.34 506.37c.32-1.23 1.4-2.06 2.67-2.06H91.2c.9 0 1.64.75 1.64 1.65 0 .15-.02.28-.06.42L82.5 544.84c-.33 1.24-1.4 2.06-2.68 2.06H38.66c-.9 0-1.64-.73-1.64-1.63 0-.15.02-.28.06-.43z" stroke="#282c33" stroke-width="1.05" fill="#cfe4ff"/><use xlink:href="#u" transform="matrix(1,0,0,1,30.850202429149803,128.13765182186233) translate(0 40.60932638173436)"/><use xlink:href="#v" transform="matrix(1,0,0,1,30.850202429149803,128.13765182186233) translate(129.5791368778163 40.60932638173436)"/><use xlink:href="#w" transform="matrix(1,0,0,1,133.05668016194332,218.98785425101215) translate(0 40.72968597385568)"/><use xlink:href="#x" transform="matrix(1,0,0,1,133.05668016194332,218.98785425101215) translate(68.91790244866952 40.72968597385568)"/><use xlink:href="#y" transform="matrix(1,0,0,1,133.05668016194332,309.83805668016197) translate(0 40.72968597385568)"/><use xlink:href="#z" transform="matrix(1,0,0,1,133.05668016194332,400.68825910931173) translate(0 40.72968597385568)"/><use xlink:href="#A" transform="matrix(1,0,0,1,133.05668016194332,400.68825910931173) translate(72.28797102806656 40.72968597385568)"/><use xlink:href="#B" transform="matrix(1,0,0,1,133.05668016194332,491.53846153846155) translate(0 40.72968597385568)"/><use xlink:href="#C" transform="matrix(1,0,0,1,133.05668016194332,491.53846153846155) translate(151.56883435838196 40.72968597385568)"/><path d="M542 754.97a6.57 6.57 0 0 1 5.98-6.55l265.38-24.27a5.48 5.48 0 0 1 5.97 5.45v140.8a6 6 0 0 1-6 6H548a6 6 0 0 1-6-6z" stroke="#282c33" stroke-width="2" fill="#c3f7c8"/><use xlink:href="#i" transform="matrix(1,0,0,1,546.9999999999998,754.0666666666666) translate(42.50308641975309 34.30555555555556)"/><use xlink:href="#D" transform="matrix(1,0,0,1,546.9999999999998,754.0666666666666) translate(113.05246913580247 34.30555555555556)"/><use xlink:href="#E" transform="matrix(1,0,0,1,546.9999999999998,754.0666666666666) translate(18.669753086419718 63.63888888888889)"/><use xlink:href="#F" transform="matrix(1,0,0,1,546.9999999999998,754.0666666666666) translate(16.021604938271594 92.97222222222223)"/><use xlink:href="#G" transform="matrix(1,0,0,1,546.9999999999998,754.0666666666666) translate(98.79320987654319 92.97222222222223)"/><path d="M840.67 1281.5v51.07" stroke="#3a414a" fill="none"/><path d="M841.14 1281.5h-.95v-.5h.94z" stroke="#3a414a" stroke-width=".05" fill="#3a414a"/><path d="M840.67 1347.33l-4.64-14.26h9.27z" stroke="#3a414a" fill="#3a414a"/><path d="M540 1281.5v241.12" stroke="#3a414a" fill="none"/><path d="M540.48 1281.5h-.96v-.5h.96z" stroke="#3a414a" stroke-width=".05" fill="#3a414a"/><path d="M540 1537.38l-4.63-14.26h9.26z" stroke="#3a414a" fill="#3a414a"/><path d="M840.67 1461.5v61.12" stroke="#3a414a" fill="none"/><path d="M841.14 1461.5h-.95v-.5h.94z" stroke="#3a414a" stroke-width=".05" fill="#3a414a"/><path d="M840.67 1537.38l-4.64-14.26h9.27z" stroke="#3a414a" fill="#3a414a"/><path d="M681.67 1061.5v49a6 6 0 0 1-6 6H546a6 6 0 0 0-6 6v33.12" stroke="#3a414a" fill="none"/><path d="M682.14 1061.5h-.95v-.5h.94z" stroke="#3a414a" stroke-width=".05" fill="#3a414a"/><path d="M540 1170.38l-4.63-14.26h9.26z" stroke="#3a414a" fill="#3a414a"/><path d="M681.67 1061.5v49a6 6 0 0 0 6 6h147a6 6 0 0 1 6 6v33.12" stroke="#3a414a" fill="none"/><path d="M682.14 1061.5h-.95v-.5h.94z" stroke="#3a414a" stroke-width=".05" fill="#3a414a"/><path d="M840.67 1170.38l-4.64-14.26h9.27z" stroke="#3a414a" fill="#3a414a"/><path d="M678.67 316.3v31.05a.04.04 0 0 0 .04.04.04.04 0 0 1 .05.04v15.18" stroke="#3a414a" fill="none"/><path d="M679.14 316.3h-.95v-.22l.94-.58z" stroke="#3a414a" stroke-width=".05" fill="#3a414a"/><path d="M678.75 377.38l-4.63-14.26h9.26z" stroke="#3a414a" fill="#3a414a"/><path d="M680 501.5v23.37a.17.17 0 0 1-.17.17.17.17 0 0 0-.16.17v7.5" stroke="#3a414a" fill="none"/><path d="M680.48 501.5h-.96v-.5h.96z" stroke="#3a414a" stroke-width=".05" fill="#3a414a"/><path d="M679.67 547.46l-4.64-14.27h9.27z" stroke="#3a414a" fill="#3a414a"/><path d="M680.67 661.5v57.39" stroke="#3a414a" fill="none"/><path d="M681.14 661.5h-.95v-.5h.94z" stroke="#3a414a" stroke-width=".05" fill="#3a414a"/><path d="M680.67 733.66l-4.64-14.27h9.27z" stroke="#3a414a" fill="#3a414a"/><path d="M680.67 877.9v44.7" stroke="#3a414a" fill="none"/><path d="M681.14 877.9h-.95v-.5h.94z" stroke="#3a414a" stroke-width=".05" fill="#3a414a"/><path d="M680.67 937.38l-4.64-14.26h9.27z" stroke="#3a414a" fill="#3a414a"/><defs><path fill="#3a414a" d="M59-47c-2 24 18 29 38 22v24C64 9 27 4 27-40v-127H5v-23h24l9-43h21v43h35v23H59v120" id="H"/><path fill="#3a414a" d="M114-163C36-179 61-72 57 0H25l-1-190h30c1 12-1 29 2 39 6-27 23-49 58-41v29" id="I"/><path fill="#3a414a" d="M141-36C126-15 110 5 73 4 37 3 15-17 15-53c-1-64 63-63 125-63 3-35-9-54-41-54-24 1-41 7-42 31l-33-3c5-37 33-52 76-52 45 0 72 20 72 64v82c-1 20 7 32 28 27v20c-31 9-61-2-59-35zM48-53c0 20 12 33 32 33 41-3 63-29 60-74-43 2-92-5-92 41" id="J"/><path fill="#3a414a" d="M117-194c89-4 53 116 60 194h-32v-121c0-31-8-49-39-48C34-167 62-67 57 0H25l-1-190h30c1 10-1 24 2 32 11-22 29-35 61-36" id="K"/><path fill="#3a414a" d="M135-143c-3-34-86-38-87 0 15 53 115 12 119 90S17 21 10-45l28-5c4 36 97 45 98 0-10-56-113-15-118-90-4-57 82-63 122-42 12 7 21 19 24 35" id="L"/><path fill="#3a414a" d="M101-234c-31-9-42 10-38 44h38v23H63V0H32v-167H5v-23h27c-7-52 17-82 69-68v24" id="M"/><path fill="#3a414a" d="M100-194c63 0 86 42 84 106H49c0 40 14 67 53 68 26 1 43-12 49-29l28 8c-11 28-37 45-77 45C44 4 14-33 15-96c1-61 26-98 85-98zm52 81c6-60-76-77-97-28-3 7-6 17-6 28h103" id="N"/><g id="a"><use transform="matrix(0.06790123456790123,0,0,0.06790123456790123,0,0)" xlink:href="#H"/><use transform="matrix(0.06790123456790123,0,0,0.06790123456790123,6.790123456790123,0)" xlink:href="#I"/><use transform="matrix(0.06790123456790123,0,0,0.06790123456790123,14.87037037037037,0)" xlink:href="#J"/><use transform="matrix(0.06790123456790123,0,0,0.06790123456790123,28.450617283950617,0)" xlink:href="#K"/><use transform="matrix(0.06790123456790123,0,0,0.06790123456790123,42.03086419753086,0)" xlink:href="#L"/><use transform="matrix(0.06790123456790123,0,0,0.06790123456790123,54.25308641975308,0)" xlink:href="#M"/><use transform="matrix(0.06790123456790123,0,0,0.06790123456790123,61.0432098765432,0)" xlink:href="#N"/><use transform="matrix(0.06790123456790123,0,0,0.06790123456790123,74.62345679012344,0)" xlink:href="#I"/></g><path fill="#3a414a" d="M33 0v-38h34V0H33" id="O"/><path fill="#3a414a" d="M85-194c31 0 48 13 60 33l-1-100h32l1 261h-30c-2-10 0-23-3-31C134-8 116 4 85 4 32 4 16-35 15-94c0-66 23-100 70-100zm9 24c-40 0-46 34-46 75 0 40 6 74 45 74 42 0 51-32 51-76 0-42-9-74-50-73" id="P"/><path fill="#3a414a" d="M101-251c82-7 93 87 43 132L82-64C71-53 59-42 53-27h129V0H18c2-99 128-94 128-182 0-28-16-43-45-43s-46 15-49 41l-32-3c6-41 34-60 81-64" id="Q"/><g id="b"><use transform="matrix(0.06790123456790123,0,0,0.06790123456790123,0,0)" xlink:href="#O"/><use transform="matrix(0.06790123456790123,0,0,0.06790123456790123,6.790123456790123,0)" xlink:href="#K"/><use transform="matrix(0.06790123456790123,0,0,0.06790123456790123,20.37037037037037,0)" xlink:href="#P"/><use transform="matrix(0.06790123456790123,0,0,0.06790123456790123,33.95061728395062,0)" xlink:href="#Q"/></g><path fill="#3a414a" d="M24-231v-30h32v30H24zM24 0v-190h32V0H24" id="R"/><path fill="#3a414a" d="M24 0v-261h32V0H24" id="S"/><g id="c"><use transform="matrix(0.06790123456790123,0,0,0.06790123456790123,0,0)" xlink:href="#M"/><use transform="matrix(0.06790123456790123,0,0,0.06790123456790123,6.790123456790123,0)" xlink:href="#R"/><use transform="matrix(0.06790123456790123,0,0,0.06790123456790123,12.15432098765432,0)" xlink:href="#S"/><use transform="matrix(0.06790123456790123,0,0,0.06790123456790123,17.518518518518512,0)" xlink:href="#N"/><use transform="matrix(0.06790123456790123,0,0,0.06790123456790123,31.098765432098762,0)" xlink:href="#L"/></g><path fill="#3a414a" d="M100-194c62-1 85 37 85 99 1 63-27 99-86 99S16-35 15-95c0-66 28-99 85-99zM99-20c44 1 53-31 53-75 0-43-8-75-51-75s-53 32-53 75 10 74 51 75" id="T"/><g id="d"><use transform="matrix(0.06790123456790123,0,0,0.06790123456790123,0,0)" xlink:href="#H"/><use transform="matrix(0.06790123456790123,0,0,0.06790123456790123,6.790123456790123,0)" xlink:href="#T"/></g><path fill="#3a414a" d="M205 0l-28-72H64L36 0H1l101-248h38L239 0h-34zm-38-99l-47-123c-12 45-31 82-46 123h93" id="U"/><path fill="#3a414a" d="M143 4C61 4 22-44 18-125c-5-107 100-154 193-111 17 8 29 25 37 43l-32 9c-13-25-37-40-76-40-61 0-88 39-88 99 0 61 29 100 91 101 35 0 62-11 79-27v-45h-74v-28h105v86C228-13 192 4 143 4" id="V"/><path fill="#3a414a" d="M16-82v-28h88v28H16" id="W"/><path fill="#3a414a" d="M240 0l2-218c-23 76-54 145-80 218h-23L58-218 59 0H30v-248h44l77 211c21-75 51-140 76-211h43V0h-30" id="X"/><path fill="#3a414a" d="M140-251c81 0 123 46 123 126C263-46 219 4 140 4 59 4 17-45 17-125s42-126 123-126zm0 227c63 0 89-41 89-101s-29-99-89-99c-61 0-89 39-89 99S79-25 140-24" id="Y"/><path fill="#3a414a" d="M190 0L58-211 59 0H30v-248h39L202-35l-2-213h31V0h-41" id="Z"/><path fill="#3a414a" d="M233-177c-1 41-23 64-60 70L243 0h-38l-65-103H63V0H30v-248c88 3 205-21 203 71zM63-129c60-2 137 13 137-47 0-61-80-42-137-45v92" id="aa"/><path fill="#3a414a" d="M30 0v-248h187v28H63v79h144v27H63v87h162V0H30" id="ab"/><path fill="#3a414a" d="M30-248c118-7 216 8 213 122C240-48 200 0 122 0H30v-248zM63-27c89 8 146-16 146-99s-60-101-146-95v194" id="ac"/><path fill="#3a414a" d="M30 0v-248h33v221h125V0H30" id="ad"/><g id="e"><use transform="matrix(0.06790123456790123,0,0,0.06790123456790123,0,0)" xlink:href="#U"/><use transform="matrix(0.06790123456790123,0,0,0.06790123456790123,16.296296296296294,0)" xlink:href="#V"/><use transform="matrix(0.06790123456790123,0,0,0.06790123456790123,35.30864197530864,0)" xlink:href="#W"/><use transform="matrix(0.06790123456790123,0,0,0.06790123456790123,43.388888888888886,0)" xlink:href="#X"/><use transform="matrix(0.06790123456790123,0,0,0.06790123456790123,63.691358024691354,0)" xlink:href="#Y"/><use transform="matrix(0.06790123456790123,0,0,0.06790123456790123,82.7037037037037,0)" xlink:href="#Y"/><use transform="matrix(0.06790123456790123,0,0,0.06790123456790123,101.71604938271605,0)" xlink:href="#Z"/><use transform="matrix(0.06790123456790123,0,0,0.06790123456790123,119.30246913580245,0)" xlink:href="#aa"/><use transform="matrix(0.06790123456790123,0,0,0.06790123456790123,136.88888888888886,0)" xlink:href="#U"/><use transform="matrix(0.06790123456790123,0,0,0.06790123456790123,153.1851851851852,0)" xlink:href="#ab"/><use transform="matrix(0.06790123456790123,0,0,0.06790123456790123,169.48148148148147,0)" xlink:href="#ac"/><use transform="matrix(0.06790123456790123,0,0,0.06790123456790123,187.0679012345679,0)" xlink:href="#ad"/><use transform="matrix(0.06790123456790123,0,0,0.06790123456790123,200.64814814814812,0)" xlink:href="#ab"/><use transform="matrix(0.06790123456790123,0,0,0.06790123456790123,216.94444444444446,0)" xlink:href="#aa"/></g><g id="f"><use transform="matrix(0.06790123456790123,0,0,0.06790123456790123,0,0)" xlink:href="#L"/><use transform="matrix(0.06790123456790123,0,0,0.06790123456790123,12.222222222222221,0)" xlink:href="#H"/><use transform="matrix(0.06790123456790123,0,0,0.06790123456790123,19.012345679012345,0)" xlink:href="#J"/><use transform="matrix(0.06790123456790123,0,0,0.06790123456790123,32.592592592592595,0)" xlink:href="#I"/><use transform="matrix(0.06790123456790123,0,0,0.06790123456790123,40.67283950617284,0)" xlink:href="#H"/></g><path fill="#3a414a" d="M30-248c87 1 191-15 191 75 0 78-77 80-158 76V0H30v-248zm33 125c57 0 124 11 124-50 0-59-68-47-124-48v98" id="ae"/><path fill="#3a414a" d="M179-190L93 31C79 59 56 82 12 73V49c39 6 53-20 64-50L1-190h34L92-34l54-156h33" id="af"/><path fill="#3a414a" d="M210-169c-67 3-38 105-44 169h-31v-121c0-29-5-50-35-48C34-165 62-65 56 0H25l-1-190h30c1 10-1 24 2 32 10-44 99-50 107 0 11-21 27-35 58-36 85-2 47 119 55 194h-31v-121c0-29-5-49-35-48" id="ag"/><g id="g"><use transform="matrix(0.06790123456790123,0,0,0.06790123456790123,0,0)" xlink:href="#ae"/><use transform="matrix(0.06790123456790123,0,0,0.06790123456790123,16.296296296296294,0)" xlink:href="#af"/><use transform="matrix(0.06790123456790123,0,0,0.06790123456790123,28.518518518518515,0)" xlink:href="#J"/><use transform="matrix(0.06790123456790123,0,0,0.06790123456790123,42.09876543209876,0)" xlink:href="#ag"/><use transform="matrix(0.06790123456790123,0,0,0.06790123456790123,62.40123456790122,0)" xlink:href="#J"/></g><path fill="#3a414a" d="M266 0h-40l-56-210L115 0H75L2-248h35L96-30l15-64 43-154h32l59 218 59-218h35" id="ah"/><path fill="#3a414a" d="M115-194c53 0 69 39 70 98 0 66-23 100-70 100C84 3 66-7 56-30L54 0H23l1-261h32v101c10-23 28-34 59-34zm-8 174c40 0 45-34 45-75 0-40-5-75-45-74-42 0-51 32-51 76 0 43 10 73 51 73" id="ai"/><path fill="#3a414a" d="M115-194c55 1 70 41 70 98S169 2 115 4C84 4 66-9 55-30l1 105H24l-1-265h31l2 30c10-21 28-34 59-34zm-8 174c40 0 45-34 45-75s-6-73-45-74c-42 0-51 32-51 76 0 43 10 73 51 73" id="aj"/><path fill="#3a414a" d="M96-169c-40 0-48 33-48 73s9 75 48 75c24 0 41-14 43-38l32 2c-6 37-31 61-74 61-59 0-76-41-82-99-10-93 101-131 147-64 4 7 5 14 7 22l-32 3c-4-21-16-35-41-35" id="ak"/><g id="h"><use transform="matrix(0.06790123456790123,0,0,0.06790123456790123,0,0)" xlink:href="#ah"/><use transform="matrix(0.06790123456790123,0,0,0.06790123456790123,22.543209876543205,0)" xlink:href="#N"/><use transform="matrix(0.06790123456790123,0,0,0.06790123456790123,36.123456790123456,0)" xlink:href="#ai"/><use transform="matrix(0.06790123456790123,0,0,0.06790123456790123,49.7037037037037,0)" xlink:href="#J"/><use transform="matrix(0.06790123456790123,0,0,0.06790123456790123,63.28395061728395,0)" xlink:href="#aj"/><use transform="matrix(0.06790123456790123,0,0,0.06790123456790123,76.8641975308642,0)" xlink:href="#aj"/><use transform="matrix(0.06790123456790123,0,0,0.06790123456790123,90.44444444444446,0)" xlink:href="#R"/><use transform="matrix(0.06790123456790123,0,0,0.06790123456790123,95.80864197530867,0)" xlink:href="#S"/><use transform="matrix(0.06790123456790123,0,0,0.06790123456790123,101.17283950617286,0)" xlink:href="#R"/><use transform="matrix(0.06790123456790123,0,0,0.06790123456790123,106.53703703703707,0)" xlink:href="#ak"/><use transform="matrix(0.06790123456790123,0,0,0.06790123456790123,118.7592592592593,0)" xlink:href="#J"/><use transform="matrix(0.06790123456790123,0,0,0.06790123456790123,132.33950617283955,0)" xlink:href="#H"/><use transform="matrix(0.06790123456790123,0,0,0.06790123456790123,139.12962962962968,0)" xlink:href="#R"/><use transform="matrix(0.06790123456790123,0,0,0.06790123456790123,144.49382716049388,0)" xlink:href="#T"/><use transform="matrix(0.06790123456790123,0,0,0.06790123456790123,158.07407407407413,0)" xlink:href="#K"/></g><g id="i"><use transform="matrix(0.06790123456790123,0,0,0.06790123456790123,0,0)" xlink:href="#L"/><use transform="matrix(0.06790123456790123,0,0,0.06790123456790123,12.222222222222221,0)" xlink:href="#N"/><use transform="matrix(0.06790123456790123,0,0,0.06790123456790123,25.80246913580247,0)" xlink:href="#S"/><use transform="matrix(0.06790123456790123,0,0,0.06790123456790123,31.166666666666664,0)" xlink:href="#N"/><use transform="matrix(0.06790123456790123,0,0,0.06790123456790123,44.74691358024691,0)" xlink:href="#ak"/><use transform="matrix(0.06790123456790123,0,0,0.06790123456790123,56.96913580246913,0)" xlink:href="#H"/></g><g id="j"><use transform="matrix(0.06790123456790123,0,0,0.06790123456790123,0,0)" xlink:href="#O"/><use transform="matrix(0.06790123456790123,0,0,0.06790123456790123,6.790123456790123,0)" xlink:href="#K"/><use transform="matrix(0.06790123456790123,0,0,0.06790123456790123,20.37037037037037,0)" xlink:href="#P"/><use transform="matrix(0.06790123456790123,0,0,0.06790123456790123,33.95061728395062,0)" xlink:href="#Q"/></g><g id="k"><use transform="matrix(0.06790123456790123,0,0,0.06790123456790123,0,0)" xlink:href="#M"/><use transform="matrix(0.06790123456790123,0,0,0.06790123456790123,6.790123456790123,0)" xlink:href="#R"/><use transform="matrix(0.06790123456790123,0,0,0.06790123456790123,12.15432098765432,0)" xlink:href="#S"/><use transform="matrix(0.06790123456790123,0,0,0.06790123456790123,17.518518518518512,0)" xlink:href="#N"/></g><path fill="#3a414a" d="M177-190C167-65 218 103 67 71c-23-6-38-20-44-43l32-5c15 47 100 32 89-28v-30C133-14 115 1 83 1 29 1 15-40 15-95c0-56 16-97 71-98 29-1 48 16 59 35 1-10 0-23 2-32h30zM94-22c36 0 50-32 50-73 0-42-14-75-50-75-39 0-46 34-46 75s6 73 46 73" id="al"/><g id="l"><use transform="matrix(0.06790123456790123,0,0,0.06790123456790123,0,0)" xlink:href="#L"/><use transform="matrix(0.06790123456790123,0,0,0.06790123456790123,12.222222222222221,0)" xlink:href="#N"/><use transform="matrix(0.06790123456790123,0,0,0.06790123456790123,25.80246913580247,0)" xlink:href="#al"/><use transform="matrix(0.06790123456790123,0,0,0.06790123456790123,39.382716049382715,0)" xlink:href="#ag"/><use transform="matrix(0.06790123456790123,0,0,0.06790123456790123,59.68518518518518,0)" xlink:href="#N"/><use transform="matrix(0.06790123456790123,0,0,0.06790123456790123,73.26543209876543,0)" xlink:href="#K"/><use transform="matrix(0.06790123456790123,0,0,0.06790123456790123,86.84567901234567,0)" xlink:href="#H"/><use transform="matrix(0.06790123456790123,0,0,0.06790123456790123,93.6358024691358,0)" xlink:href="#J"/><use transform="matrix(0.06790123456790123,0,0,0.06790123456790123,107.21604938271604,0)" xlink:href="#H"/><use transform="matrix(0.06790123456790123,0,0,0.06790123456790123,114.00617283950618,0)" xlink:href="#R"/><use transform="matrix(0.06790123456790123,0,0,0.06790123456790123,119.37037037037038,0)" xlink:href="#T"/><use transform="matrix(0.06790123456790123,0,0,0.06790123456790123,132.95061728395063,0)" xlink:href="#K"/></g><path fill="#3a414a" d="M143 0L79-87 56-68V0H24v-261h32v163l83-92h37l-77 82L181 0h-38" id="am"/><path fill="#3a414a" d="M84 4C-5 8 30-112 23-190h32v120c0 31 7 50 39 49 72-2 45-101 50-169h31l1 190h-30c-1-10 1-25-2-33-11 22-28 36-60 37" id="an"/><g id="m"><use transform="matrix(0.06790123456790123,0,0,0.06790123456790123,0,0)" xlink:href="#ai"/><use transform="matrix(0.06790123456790123,0,0,0.06790123456790123,13.580246913580247,0)" xlink:href="#J"/><use transform="matrix(0.06790123456790123,0,0,0.06790123456790123,27.160493827160494,0)" xlink:href="#ak"/><use transform="matrix(0.06790123456790123,0,0,0.06790123456790123,39.382716049382715,0)" xlink:href="#am"/><use transform="matrix(0.06790123456790123,0,0,0.06790123456790123,51.60493827160494,0)" xlink:href="#al"/><use transform="matrix(0.06790123456790123,0,0,0.06790123456790123,65.18518518518519,0)" xlink:href="#I"/><use transform="matrix(0.06790123456790123,0,0,0.06790123456790123,73.26543209876544,0)" xlink:href="#T"/><use transform="matrix(0.06790123456790123,0,0,0.06790123456790123,86.8456790123457,0)" xlink:href="#an"/><use transform="matrix(0.06790123456790123,0,0,0.06790123456790123,100.42592592592595,0)" xlink:href="#K"/><use transform="matrix(0.06790123456790123,0,0,0.06790123456790123,114.0061728395062,0)" xlink:href="#P"/></g><g id="n"><use transform="matrix(0.06790123456790123,0,0,0.06790123456790123,0,0)" xlink:href="#ak"/><use transform="matrix(0.06790123456790123,0,0,0.06790123456790123,12.222222222222221,0)" xlink:href="#T"/><use transform="matrix(0.06790123456790123,0,0,0.06790123456790123,25.80246913580247,0)" xlink:href="#I"/><use transform="matrix(0.06790123456790123,0,0,0.06790123456790123,33.882716049382715,0)" xlink:href="#I"/><use transform="matrix(0.06790123456790123,0,0,0.06790123456790123,41.96296296296296,0)" xlink:href="#N"/><use transform="matrix(0.06790123456790123,0,0,0.06790123456790123,55.54320987654321,0)" xlink:href="#ak"/><use transform="matrix(0.06790123456790123,0,0,0.06790123456790123,67.76543209876543,0)" xlink:href="#H"/><use transform="matrix(0.06790123456790123,0,0,0.06790123456790123,74.55555555555556,0)" xlink:href="#R"/><use transform="matrix(0.06790123456790123,0,0,0.06790123456790123,79.91975308641976,0)" xlink:href="#T"/><use transform="matrix(0.06790123456790123,0,0,0.06790123456790123,93.5,0)" xlink:href="#K"/></g><path fill="#3a414a" d="M141 0L90-78 38 0H4l68-98-65-92h35l48 74 47-74h35l-64 92 68 98h-35" id="ao"/><g id="o"><use transform="matrix(0.06790123456790123,0,0,0.06790123456790123,0,0)" xlink:href="#N"/><use transform="matrix(0.06790123456790123,0,0,0.06790123456790123,13.580246913580247,0)" xlink:href="#ao"/><use transform="matrix(0.06790123456790123,0,0,0.06790123456790123,25.80246913580247,0)" xlink:href="#aj"/><use transform="matrix(0.06790123456790123,0,0,0.06790123456790123,39.382716049382715,0)" xlink:href="#T"/><use transform="matrix(0.06790123456790123,0,0,0.06790123456790123,52.96296296296296,0)" xlink:href="#I"/><use transform="matrix(0.06790123456790123,0,0,0.06790123456790123,61.04320987654321,0)" xlink:href="#H"/></g><g id="p"><use transform="matrix(0.06790123456790123,0,0,0.06790123456790123,0,0)" xlink:href="#P"/><use transform="matrix(0.06790123456790123,0,0,0.06790123456790123,13.580246913580247,0)" xlink:href="#J"/><use transform="matrix(0.06790123456790123,0,0,0.06790123456790123,27.160493827160494,0)" xlink:href="#H"/><use transform="matrix(0.06790123456790123,0,0,0.06790123456790123,33.95061728395062,0)" xlink:href="#J"/></g><path fill="#3a414a" d="M87 75C49 33 22-17 22-94c0-76 28-126 65-167h31c-38 41-64 92-64 168S80 34 118 75H87" id="ap"/><path fill="#3a414a" d="M33-261c38 41 65 92 65 168S71 34 33 75H2C39 34 66-17 66-93S39-220 2-261h31" id="aq"/><g id="q"><use transform="matrix(0.06790123456790123,0,0,0.06790123456790123,0,0)" xlink:href="#ap"/><use transform="matrix(0.06790123456790123,0,0,0.06790123456790123,8.080246913580247,0)" xlink:href="#P"/><use transform="matrix(0.06790123456790123,0,0,0.06790123456790123,21.660493827160494,0)" xlink:href="#N"/><use transform="matrix(0.06790123456790123,0,0,0.06790123456790123,35.24074074074074,0)" xlink:href="#aq"/><use transform="matrix(0.06790123456790123,0,0,0.06790123456790123,43.32098765432099,0)" xlink:href="#L"/><use transform="matrix(0.06790123456790123,0,0,0.06790123456790123,55.54320987654321,0)" xlink:href="#N"/><use transform="matrix(0.06790123456790123,0,0,0.06790123456790123,69.12345679012346,0)" xlink:href="#S"/><use transform="matrix(0.06790123456790123,0,0,0.06790123456790123,74.48765432098766,0)" xlink:href="#N"/><use transform="matrix(0.06790123456790123,0,0,0.06790123456790123,88.0679012345679,0)" xlink:href="#ak"/><use transform="matrix(0.06790123456790123,0,0,0.06790123456790123,100.29012345679013,0)" xlink:href="#H"/></g><g id="r"><use transform="matrix(0.06790123456790123,0,0,0.06790123456790123,0,0)" xlink:href="#ak"/><use transform="matrix(0.06790123456790123,0,0,0.06790123456790123,12.222222222222221,0)" xlink:href="#N"/><use transform="matrix(0.06790123456790123,0,0,0.06790123456790123,25.80246913580247,0)" xlink:href="#S"/><use transform="matrix(0.06790123456790123,0,0,0.06790123456790123,31.166666666666664,0)" xlink:href="#S"/><use transform="matrix(0.06790123456790123,0,0,0.06790123456790123,36.53086419753086,0)" xlink:href="#L"/></g><path fill="#3a414a" d="M206 0h-36l-40-164L89 0H53L-1-190h32L70-26l43-164h34l41 164 42-164h31" id="ar"/><g id="s"><use transform="matrix(0.06790123456790123,0,0,0.06790123456790123,0,0)" xlink:href="#P"/><use transform="matrix(0.06790123456790123,0,0,0.06790123456790123,13.580246913580247,0)" xlink:href="#I"/><use transform="matrix(0.06790123456790123,0,0,0.06790123456790123,21.660493827160494,0)" xlink:href="#J"/><use transform="matrix(0.06790123456790123,0,0,0.06790123456790123,35.24074074074074,0)" xlink:href="#ar"/></g><g id="t"><use transform="matrix(0.06790123456790123,0,0,0.06790123456790123,0,0)" xlink:href="#I"/><use transform="matrix(0.06790123456790123,0,0,0.06790123456790123,8.080246913580247,0)" xlink:href="#T"/><use transform="matrix(0.06790123456790123,0,0,0.06790123456790123,21.660493827160494,0)" xlink:href="#R"/></g><path d="M24-248c120-7 223 5 221 122C244-46 201 0 124 0H24v-248zM76-40c74 7 117-18 117-86 0-67-45-88-117-82v168" id="as"/><path d="M25-224v-37h50v37H25zM25 0v-190h50V0H25" id="at"/><path d="M133-34C117-15 103 5 69 4 32 3 11-16 11-54c-1-60 55-63 116-61 1-26-3-47-28-47-18 1-26 9-28 27l-52-2c7-38 36-58 82-57s74 22 75 68l1 82c-1 14 12 18 25 15v27c-30 8-71 5-69-32zm-48 3c29 0 43-24 42-57-32 0-66-3-65 30 0 17 8 27 23 27" id="au"/><path d="M195-6C206 82 75 100 31 46c-4-6-6-13-8-21l49-6c3 16 16 24 34 25 40 0 42-37 40-79-11 22-30 35-61 35-53 0-70-43-70-97 0-56 18-96 73-97 30 0 46 14 59 34l2-30h47zm-90-29c32 0 41-27 41-63 0-35-9-62-40-62-32 0-39 29-40 63 0 36 9 62 39 62" id="av"/><path d="M135-150c-39-12-60 13-60 57V0H25l-1-190h47c2 13-1 29 3 40 6-28 27-53 61-41v41" id="aw"/><path d="M220-157c-53 9-28 100-34 157h-49v-107c1-27-5-49-29-50C55-147 81-57 75 0H25l-1-190h47c2 12-1 28 3 38 10-53 101-56 108 0 13-22 24-43 59-42 82 1 51 116 57 194h-49v-107c-1-25-5-48-29-50" id="ax"/><g id="u"><use transform="matrix(0.08425171448492606,0,0,0.08425171448492606,0,0)" xlink:href="#as"/><use transform="matrix(0.08425171448492606,0,0,0.08425171448492606,21.821194051595857,0)" xlink:href="#at"/><use transform="matrix(0.08425171448492606,0,0,0.08425171448492606,30.246365500088462,0)" xlink:href="#au"/><use transform="matrix(0.08425171448492606,0,0,0.08425171448492606,47.09670839707368,0)" xlink:href="#av"/><use transform="matrix(0.08425171448492606,0,0,0.08425171448492606,65.5478338692725,0)" xlink:href="#aw"/><use transform="matrix(0.08425171448492606,0,0,0.08425171448492606,77.34307389716214,0)" xlink:href="#au"/><use transform="matrix(0.08425171448492606,0,0,0.08425171448492606,94.19341679414735,0)" xlink:href="#ax"/></g><path d="M147 0L96-86 75-71V0H25v-261h50v150l67-79h53l-66 74L201 0h-54" id="ay"/><path d="M185-48c-13 30-37 53-82 52C43 2 14-33 14-96s30-98 90-98c62 0 83 45 84 108H66c0 31 8 55 39 56 18 0 30-7 34-22zm-45-69c5-46-57-63-70-21-2 6-4 13-4 21h74" id="az"/><path d="M123 10C108 53 80 86 19 72V37c35 8 53-11 59-39L3-190h52l48 148c12-52 28-100 44-148h51" id="aA"/><g id="v"><use transform="matrix(0.08425171448492606,0,0,0.08425171448492606,0,0)" xlink:href="#ay"/><use transform="matrix(0.08425171448492606,0,0,0.08425171448492606,16.850342896985214,0)" xlink:href="#az"/><use transform="matrix(0.08425171448492606,0,0,0.08425171448492606,33.70068579397043,0)" xlink:href="#aA"/></g><path d="M233-177c-1 41-23 64-60 70L243 0h-38l-65-103H63V0H30v-248c88 3 205-21 203 71zM63-129c60-2 137 13 137-47 0-61-80-42-137-45v92" id="aB"/><path d="M141-36C126-15 110 5 73 4 37 3 15-17 15-53c-1-64 63-63 125-63 3-35-9-54-41-54-24 1-41 7-42 31l-33-3c5-37 33-52 76-52 45 0 72 20 72 64v82c-1 20 7 32 28 27v20c-31 9-61-2-59-35zM48-53c0 20 12 33 32 33 41-3 63-29 60-74-43 2-92-5-92 41" id="aC"/><path d="M206 0h-36l-40-164L89 0H53L-1-190h32L70-26l43-164h34l41 164 42-164h31" id="aD"/><g id="w"><use transform="matrix(0.08425171448492605,0,0,0.08425171448492605,0,0)" xlink:href="#aB"/><use transform="matrix(0.08425171448492605,0,0,0.08425171448492605,21.821194051595853,0)" xlink:href="#aC"/><use transform="matrix(0.08425171448492605,0,0,0.08425171448492605,38.671536948581064,0)" xlink:href="#aD"/></g><path d="M30-248c118-7 216 8 213 122C240-48 200 0 122 0H30v-248zM63-27c89 8 146-16 146-99s-60-101-146-95v194" id="aE"/><path d="M59-47c-2 24 18 29 38 22v24C64 9 27 4 27-40v-127H5v-23h24l9-43h21v43h35v23H59v120" id="aF"/><path d="M135-143c-3-34-86-38-87 0 15 53 115 12 119 90S17 21 10-45l28-5c4 36 97 45 98 0-10-56-113-15-118-90-4-57 82-63 122-42 12 7 21 19 24 35" id="aG"/><path d="M100-194c63 0 86 42 84 106H49c0 40 14 67 53 68 26 1 43-12 49-29l28 8c-11 28-37 45-77 45C44 4 14-33 15-96c1-61 26-98 85-98zm52 81c6-60-76-77-97-28-3 7-6 17-6 28h103" id="aH"/><g id="x"><use transform="matrix(0.08425171448492605,0,0,0.08425171448492605,0,0)" xlink:href="#aE"/><use transform="matrix(0.08425171448492605,0,0,0.08425171448492605,21.821194051595853,0)" xlink:href="#aC"/><use transform="matrix(0.08425171448492605,0,0,0.08425171448492605,38.671536948581064,0)" xlink:href="#aF"/><use transform="matrix(0.08425171448492605,0,0,0.08425171448492605,47.09670839707367,0)" xlink:href="#aC"/><use transform="matrix(0.08425171448492605,0,0,0.08425171448492605,63.94705129405889,0)" xlink:href="#aG"/><use transform="matrix(0.08425171448492605,0,0,0.08425171448492605,79.11235990134557,0)" xlink:href="#aH"/><use transform="matrix(0.08425171448492605,0,0,0.08425171448492605,95.9627027983308,0)" xlink:href="#aF"/><use transform="matrix(0.08425171448492605,0,0,0.08425171448492605,104.3878742468234,0)" xlink:href="#aG"/></g><path d="M30-248c87 1 191-15 191 75 0 78-77 80-158 76V0H30v-248zm33 125c57 0 124 11 124-50 0-59-68-47-124-48v98" id="aI"/><path d="M114-163C36-179 61-72 57 0H25l-1-190h30c1 12-1 29 2 39 6-27 23-49 58-41v29" id="aJ"/><path d="M100-194c62-1 85 37 85 99 1 63-27 99-86 99S16-35 15-95c0-66 28-99 85-99zM99-20c44 1 53-31 53-75 0-43-8-75-51-75s-53 32-53 75 10 74 51 75" id="aK"/><path d="M96-169c-40 0-48 33-48 73s9 75 48 75c24 0 41-14 43-38l32 2c-6 37-31 61-74 61-59 0-76-41-82-99-10-93 101-131 147-64 4 7 5 14 7 22l-32 3c-4-21-16-35-41-35" id="aL"/><g id="y"><use transform="matrix(0.08425171448492605,0,0,0.08425171448492605,0,0)" xlink:href="#aI"/><use transform="matrix(0.08425171448492605,0,0,0.08425171448492605,20.220411476382257,0)" xlink:href="#aJ"/><use transform="matrix(0.08425171448492605,0,0,0.08425171448492605,30.246365500088455,0)" xlink:href="#aK"/><use transform="matrix(0.08425171448492605,0,0,0.08425171448492605,47.09670839707367,0)" xlink:href="#aL"/><use transform="matrix(0.08425171448492605,0,0,0.08425171448492605,62.26201700436036,0)" xlink:href="#aH"/><use transform="matrix(0.08425171448492605,0,0,0.08425171448492605,79.11235990134557,0)" xlink:href="#aG"/><use transform="matrix(0.08425171448492605,0,0,0.08425171448492605,94.27766850863227,0)" xlink:href="#aG"/></g><path d="M232-93c-1 65-40 97-104 97C67 4 28-28 28-90v-158h33c8 89-33 224 67 224 102 0 64-133 71-224h33v155" id="aM"/><g id="z"><use transform="matrix(0.08425171448492605,0,0,0.08425171448492605,0,0)" xlink:href="#aM"/><use transform="matrix(0.08425171448492605,0,0,0.08425171448492605,21.821194051595853,0)" xlink:href="#aG"/><use transform="matrix(0.08425171448492605,0,0,0.08425171448492605,36.98650265888254,0)" xlink:href="#aH"/><use transform="matrix(0.08425171448492605,0,0,0.08425171448492605,53.836845555867754,0)" xlink:href="#aJ"/></g><path d="M33 0v-248h34V0H33" id="aN"/><path d="M117-194c89-4 53 116 60 194h-32v-121c0-31-8-49-39-48C34-167 62-67 57 0H25l-1-190h30c1 10-1 24 2 32 11-22 29-35 61-36" id="aO"/><path d="M115-194c55 1 70 41 70 98S169 2 115 4C84 4 66-9 55-30l1 105H24l-1-265h31l2 30c10-21 28-34 59-34zm-8 174c40 0 45-34 45-75s-6-73-45-74c-42 0-51 32-51 76 0 43 10 73 51 73" id="aP"/><path d="M84 4C-5 8 30-112 23-190h32v120c0 31 7 50 39 49 72-2 45-101 50-169h31l1 190h-30c-1-10 1-25-2-33-11 22-28 36-60 37" id="aQ"/><g id="A"><use transform="matrix(0.08425171448492605,0,0,0.08425171448492605,0,0)" xlink:href="#aN"/><use transform="matrix(0.08425171448492605,0,0,0.08425171448492605,8.425171448492605,0)" xlink:href="#aO"/><use transform="matrix(0.08425171448492605,0,0,0.08425171448492605,25.275514345477816,0)" xlink:href="#aP"/><use transform="matrix(0.08425171448492605,0,0,0.08425171448492605,42.12585724246303,0)" xlink:href="#aQ"/><use transform="matrix(0.08425171448492605,0,0,0.08425171448492605,58.97620013944823,0)" xlink:href="#aF"/></g><path d="M85-194c31 0 48 13 60 33l-1-100h32l1 261h-30c-2-10 0-23-3-31C134-8 116 4 85 4 32 4 16-35 15-94c0-66 23-100 70-100zm9 24c-40 0-46 34-46 75 0 40 6 74 45 74 42 0 51-32 51-76 0-42-9-74-50-73" id="aR"/><g id="B"><use transform="matrix(0.08425171448492605,0,0,0.08425171448492605,0,0)" xlink:href="#aI"/><use transform="matrix(0.08425171448492605,0,0,0.08425171448492605,20.220411476382257,0)" xlink:href="#aJ"/><use transform="matrix(0.08425171448492605,0,0,0.08425171448492605,30.246365500088455,0)" xlink:href="#aK"/><use transform="matrix(0.08425171448492605,0,0,0.08425171448492605,47.09670839707367,0)" xlink:href="#aL"/><use transform="matrix(0.08425171448492605,0,0,0.08425171448492605,62.26201700436036,0)" xlink:href="#aH"/><use transform="matrix(0.08425171448492605,0,0,0.08425171448492605,79.11235990134557,0)" xlink:href="#aG"/><use transform="matrix(0.08425171448492605,0,0,0.08425171448492605,94.27766850863227,0)" xlink:href="#aG"/><use transform="matrix(0.08425171448492605,0,0,0.08425171448492605,109.44297711591895,0)" xlink:href="#aH"/><use transform="matrix(0.08425171448492605,0,0,0.08425171448492605,126.29332001290416,0)" xlink:href="#aR"/></g><g id="C"><use transform="matrix(0.08425171448492605,0,0,0.08425171448492605,0,0)" xlink:href="#aE"/><use transform="matrix(0.08425171448492605,0,0,0.08425171448492605,21.821194051595853,0)" xlink:href="#aC"/><use transform="matrix(0.08425171448492605,0,0,0.08425171448492605,38.671536948581064,0)" xlink:href="#aF"/><use transform="matrix(0.08425171448492605,0,0,0.08425171448492605,47.09670839707367,0)" xlink:href="#aC"/></g><path fill="#3a414a" d="M106-169C34-169 62-67 57 0H25v-261h32l-1 103c12-21 28-36 61-36 89 0 53 116 60 194h-32v-121c2-32-8-49-39-48" id="aS"/><path fill="#3a414a" d="M0 4l72-265h28L28 4H0" id="aT"/><g id="D"><use transform="matrix(0.06790123456790123,0,0,0.06790123456790123,0,0)" xlink:href="#ai"/><use transform="matrix(0.06790123456790123,0,0,0.06790123456790123,13.580246913580247,0)" xlink:href="#I"/><use transform="matrix(0.06790123456790123,0,0,0.06790123456790123,21.660493827160494,0)" xlink:href="#R"/><use transform="matrix(0.06790123456790123,0,0,0.06790123456790123,27.02469135802469,0)" xlink:href="#al"/><use transform="matrix(0.06790123456790123,0,0,0.06790123456790123,40.60493827160494,0)" xlink:href="#aS"/><use transform="matrix(0.06790123456790123,0,0,0.06790123456790123,54.18518518518518,0)" xlink:href="#H"/><use transform="matrix(0.06790123456790123,0,0,0.06790123456790123,60.9753086419753,0)" xlink:href="#M"/><use transform="matrix(0.06790123456790123,0,0,0.06790123456790123,67.76543209876543,0)" xlink:href="#R"/><use transform="matrix(0.06790123456790123,0,0,0.06790123456790123,73.12962962962965,0)" xlink:href="#N"/><use transform="matrix(0.06790123456790123,0,0,0.06790123456790123,86.70987654320987,0)" xlink:href="#S"/><use transform="matrix(0.06790123456790123,0,0,0.06790123456790123,92.07407407407406,0)" xlink:href="#P"/><use transform="matrix(0.06790123456790123,0,0,0.06790123456790123,105.65432098765433,0)" xlink:href="#aT"/></g><g id="E"><use transform="matrix(0.06790123456790123,0,0,0.06790123456790123,0,0)" xlink:href="#M"/><use transform="matrix(0.06790123456790123,0,0,0.06790123456790123,6.790123456790123,0)" xlink:href="#S"/><use transform="matrix(0.06790123456790123,0,0,0.06790123456790123,12.15432098765432,0)" xlink:href="#an"/><use transform="matrix(0.06790123456790123,0,0,0.06790123456790123,25.734567901234566,0)" xlink:href="#T"/><use transform="matrix(0.06790123456790123,0,0,0.06790123456790123,39.31481481481481,0)" xlink:href="#I"/><use transform="matrix(0.06790123456790123,0,0,0.06790123456790123,47.395061728395056,0)" xlink:href="#N"/><use transform="matrix(0.06790123456790123,0,0,0.06790123456790123,60.9753086419753,0)" xlink:href="#L"/><use transform="matrix(0.06790123456790123,0,0,0.06790123456790123,73.19753086419752,0)" xlink:href="#N"/><use transform="matrix(0.06790123456790123,0,0,0.06790123456790123,86.77777777777777,0)" xlink:href="#K"/><use transform="matrix(0.06790123456790123,0,0,0.06790123456790123,100.35802469135803,0)" xlink:href="#ak"/><use transform="matrix(0.06790123456790123,0,0,0.06790123456790123,112.58024691358025,0)" xlink:href="#N"/><use transform="matrix(0.06790123456790123,0,0,0.06790123456790123,126.16049382716051,0)" xlink:href="#aT"/><use transform="matrix(0.06790123456790123,0,0,0.06790123456790123,132.95061728395063,0)" xlink:href="#ak"/><use transform="matrix(0.06790123456790123,0,0,0.06790123456790123,145.17283950617286,0)" xlink:href="#aS"/><use transform="matrix(0.06790123456790123,0,0,0.06790123456790123,158.75308641975312,0)" xlink:href="#J"/><use transform="matrix(0.06790123456790123,0,0,0.06790123456790123,172.3333333333334,0)" xlink:href="#K"/><use transform="matrix(0.06790123456790123,0,0,0.06790123456790123,185.91358024691363,0)" xlink:href="#K"/><use transform="matrix(0.06790123456790123,0,0,0.06790123456790123,199.49382716049388,0)" xlink:href="#N"/><use transform="matrix(0.06790123456790123,0,0,0.06790123456790123,213.07407407407413,0)" xlink:href="#S"/><use transform="matrix(0.06790123456790123,0,0,0.06790123456790123,218.4382716049383,0)" xlink:href="#L"/></g><g id="F"><use transform="matrix(0.06790123456790123,0,0,0.06790123456790123,0,0)" xlink:href="#L"/><use transform="matrix(0.06790123456790123,0,0,0.06790123456790123,12.222222222222221,0)" xlink:href="#aj"/><use transform="matrix(0.06790123456790123,0,0,0.06790123456790123,25.80246913580247,0)" xlink:href="#N"/><use transform="matrix(0.06790123456790123,0,0,0.06790123456790123,39.382716049382715,0)" xlink:href="#ak"/><use transform="matrix(0.06790123456790123,0,0,0.06790123456790123,51.60493827160494,0)" xlink:href="#R"/><use transform="matrix(0.06790123456790123,0,0,0.06790123456790123,56.96913580246913,0)" xlink:href="#M"/><use transform="matrix(0.06790123456790123,0,0,0.06790123456790123,63.75925925925925,0)" xlink:href="#af"/></g><g id="G"><use transform="matrix(0.06790123456790123,0,0,0.06790123456790123,0,0)" xlink:href="#aj"/><use transform="matrix(0.06790123456790123,0,0,0.06790123456790123,13.580246913580247,0)" xlink:href="#T"/><use transform="matrix(0.06790123456790123,0,0,0.06790123456790123,27.160493827160494,0)" xlink:href="#L"/><use transform="matrix(0.06790123456790123,0,0,0.06790123456790123,39.382716049382715,0)" xlink:href="#R"/><use transform="matrix(0.06790123456790123,0,0,0.06790123456790123,44.74691358024691,0)" xlink:href="#H"/><use transform="matrix(0.06790123456790123,0,0,0.06790123456790123,51.537037037037045,0)" xlink:href="#R"/><use transform="matrix(0.06790123456790123,0,0,0.06790123456790123,56.901234567901234,0)" xlink:href="#T"/><use transform="matrix(0.06790123456790123,0,0,0.06790123456790123,70.48148148148148,0)" xlink:href="#K"/><use transform="matrix(0.06790123456790123,0,0,0.06790123456790123,84.06172839506172,0)" xlink:href="#aT"/><use transform="matrix(0.06790123456790123,0,0,0.06790123456790123,90.85185185185185,0)" xlink:href="#M"/><use transform="matrix(0.06790123456790123,0,0,0.06790123456790123,97.64197530864197,0)" xlink:href="#I"/><use transform="matrix(0.06790123456790123,0,0,0.06790123456790123,105.72222222222223,0)" xlink:href="#J"/><use transform="matrix(0.06790123456790123,0,0,0.06790123456790123,119.30246913580248,0)" xlink:href="#ag"/><use transform="matrix(0.06790123456790123,0,0,0.06790123456790123,139.60493827160496,0)" xlink:href="#N"/></g></defs></g></svg>